<svg width="48" height="48" viewBox="0 0 48 48" xmlns="http://www.w3.org/2000/svg">
  <rect width="48" height="48" rx="10" fill="#0F0F12" />
  <path d="M 11 9 L 11 39 L 28 39 C 34 39 38 35.5 38 30.5 C 38 27 35.5 24.5 33 23.5 C 34.5 22.5 37 21 37 17.5 C 37 12.5 33.5 9 28 9 L 11 9 Z M 16 13.5 L 26 13.5 C 28.5 13.5 31 15 31 17.5 C 31 20 28.5 21 26 21 L 16 21 Z M 16 26 L 27 26 C 29.5 26 32 27.5 32 30 C 32 32.5 29.5 33.5 27 33.5 L 16 33.5 Z" fill="#F5F5F7"/>
  <rect x="4" y="27.5" width="40" height="5" fill="#CC0000"/>
  <rect x="32" y="28.5" width="1.5" height="3" fill="white"/>
  <rect x="34" y="28.5" width="1.5" height="3" fill="white"/>
  <rect x="36" y="28.5" width="1.5" height="3" fill="white"/>
</svg>
